# xmcd
# Copyright (C) 1995-1998 Ti Kan
#
# Track frame offsets:
#       150
#       1848
#       5355
#       13311
#
# Disc length: 289 seconds
#
# Revision: 0
# Processed by: cddbd v1.5.2PL0 Copyright (c) Steve Scherf et al.
# Submitted via: CD-Import v1.0
#
DISCID=1f011f04
DTITLE=Andrew - Ku
DYEAR=1900
DGENRE=
TTITLE0=Triojingle
TTITLE1=Triosong
TTITLE2=Kulinarium1.
TTITLE3=Kulinarium2.
EXTD=
EXTT0=
EXTT1=
EXTT2=
EXTT3=
PLAYORDER=
